<?xml version="1.0" encoding="utf-8"?>
<!-- Generator: Adobe Illustrator 26.5.2, SVG Export Plug-In . SVG Version: 6.00 Build 0)  -->
<svg version="1.1" id="_레이어_2" xmlns="http://www.w3.org/2000/svg" xmlns:xlink="http://www.w3.org/1999/xlink" x="0px"
	 y="0px" viewBox="0 0 192.1 100.3" style="enable-background:new 0 0 192.1 100.3;" xml:space="preserve">
<style type="text/css">
	.st0{fill:#3D5618;}
</style>
<g id="_레이어_1-2">
	<g>
		<g>
			<path class="st0" d="M96,14.8c19.2,0,37.3,3.8,50.8,10.7c13.1,6.7,20.4,15.4,20.4,24.6s-7.2,17.9-20.4,24.6
				c-13.5,6.9-31.6,10.7-50.8,10.7s-37.3-3.8-50.8-10.7c-13.1-6.7-20.4-15.4-20.4-24.6s7.2-18,20.4-24.6
				C58.8,18.6,76.8,14.8,96,14.8 M96,12.9c-40.3,0-73,16.7-73,37.2s32.7,37.2,73,37.2s73-16.7,73-37.2S136.4,12.9,96,12.9L96,12.9z"
				/>
			<path class="st0" d="M96,89.3c-19.8,0-38.5-3.9-52.5-11.1C29,70.8,21,60.9,21,50.2s8-20.7,22.5-28.1C57.6,14.9,76.2,11,96,11
				s38.5,3.9,52.5,11.1c14.5,7.4,22.5,17.3,22.5,28.1s-8,20.7-22.5,28.1C134.5,85.4,115.8,89.3,96,89.3L96,89.3z M96,16.8
				c-18.9,0-36.6,3.7-49.9,10.5c-12.4,6.3-19.3,14.5-19.3,22.9s6.9,16.6,19.3,22.9c13.3,6.8,31,10.5,49.9,10.5s36.6-3.7,49.9-10.5
				c12.4-6.3,19.3-14.5,19.3-22.9s-6.9-16.6-19.3-22.9C132.7,20.5,114.9,16.8,96,16.8z"/>
		</g>
		<g>
			<path class="st0" d="M63.1,49.2c2.3-1.8,2.8-4,2.8-5.8c0-2.8-1.1-7.4-8.7-7.4H45.1v28.1h11.8c6,0,9.4-3.1,9.4-8.8
				C66.3,52.6,65.2,50.5,63.1,49.2L63.1,49.2z M50.1,59.3V40.8h7c3.5,0,3.7,1.4,3.7,2.7c0,0.8,0,3.4-7.2,4.1l-1.5,0.1v4.3h3
				c5.9,0,5.9,2.3,5.9,3.3c0,2.8-1.3,3.9-4.4,3.9H50.1L50.1,59.3z"/>
			<path class="st0" d="M77.4,42.5c-6.5,0-10.1,3.9-10.1,10.9l0,0c0,7,3.6,10.9,10.1,10.9s10.1-3.9,10.1-10.9S83.9,42.5,77.4,42.5z
				 M77.4,47.3c3.6,0,5.1,1.8,5.1,6c0,3.1-0.6,6.2-5.1,6.2c-2.5,0-5.1-0.7-5.1-6.2C72.3,49.1,73.9,47.3,77.4,47.3z"/>
			<path class="st0" d="M93.3,39.7h-4.3v17.9c0,4.1,2.2,6.5,6.1,6.5h4.2v-4.8H95c-0.4,0-1,0-1-2v-9.9h5.3v-4.8h-5.6L93.3,39.7
				L93.3,39.7z"/>
			<path class="st0" d="M109.8,42.6c-2.1,0-4.3,0.3-6.4,0.9l-1.2,0.3v4.9l2.1-0.6c1.8-0.5,3.7-0.8,5.5-0.8c3.4,0,3.7,1.3,3.7,2.6
				v0.5c-1.3-0.1-2.6-0.2-3.8-0.2c-7.7,0-8.8,4.4-8.8,7c0,2.6,1,6.8,8,6.8c1.8,0,3.6-0.4,5.5-1.1l0.3,1.1h4V49.9
				C118.5,47.2,117.4,42.6,109.8,42.6L109.8,42.6z M109.6,55.1c1.2,0,2.5,0.1,3.8,0.2v2.9c-1.5,0.7-3.1,1.1-4.7,1.1
				c-2.9,0-2.9-1.2-2.9-2C105.8,56.6,105.8,55.1,109.6,55.1z"/>
			<path class="st0" d="M130.8,42.6c-1.8,0-3.6,0.4-5.5,1.3l-0.1-1.3h-4.4v21.5h5V49c1.6-1,3.2-1.5,4.9-1.5c3,0,3.3,1.3,3.3,2.5
				v14.2h5V50C139.1,47.2,138,42.6,130.8,42.6L130.8,42.6z"/>
			<rect x="141.6" y="36" class="st0" width="5.4" height="5.3"/>
			<rect x="141.8" y="42.6" class="st0" width="5" height="21.5"/>
		</g>
	</g>
</g>
</svg>
