<?xml version="1.0" encoding="utf-8"?>
<!-- Generator: Adobe Illustrator 26.5.2, SVG Export Plug-In . SVG Version: 6.00 Build 0)  -->
<svg version="1.1" id="_레이어_2" xmlns="http://www.w3.org/2000/svg" xmlns:xlink="http://www.w3.org/1999/xlink" x="0px"
	 y="0px" viewBox="0 0 158.2 43.8" style="enable-background:new 0 0 158.2 43.8;" xml:space="preserve">
<style type="text/css">
	.st0{fill:#3D5618;}
</style>
<g id="_레이어_1-2">
	<g>
		<path class="st0" d="M37.1,20.7c2.9-2.3,3.6-5.1,3.6-7.4c0-3.5-1.4-9.4-11.1-9.4H14.1v35.8h15.1c7.7,0,12-4,12-11.2
			C41.2,25,39.8,22.4,37.1,20.7L37.1,20.7z M20.5,33.6V10h9c4.4,0,4.8,1.8,4.8,3.5c0,1.1,0,4.3-9.2,5.2l-1.9,0.2v5.5H27
			c7.5,0,7.5,3,7.5,4.2c0,3.6-1.6,5-5.6,5L20.5,33.6L20.5,33.6z"/>
		<path class="st0" d="M55.4,12.1C47,12.1,42.5,17,42.5,26l0,0c0,9,4.6,13.9,12.9,13.9S68.3,34.9,68.3,26S63.7,12.1,55.4,12.1z
			 M55.4,18.2c4.5,0,6.5,2.3,6.5,7.7c0,3.9-0.8,7.9-6.5,7.9c-3.2,0-6.5-0.9-6.5-7.9C48.9,20.5,50.8,18.2,55.4,18.2z"/>
		<path class="st0" d="M75.6,8.6h-5.5v22.8c0,5.3,2.8,8.3,7.7,8.3h5.4v-6.1h-5.5c-0.6,0-1.3,0-1.3-2.5V18.4h6.8v-6.1H76L75.6,8.6
			L75.6,8.6z"/>
		<path class="st0" d="M96.7,12.3c-2.7,0-5.5,0.4-8.2,1.2l-1.5,0.4v6.3l2.6-0.8c2.3-0.7,4.7-1,7-1c4.3,0,4.7,1.7,4.7,3.3v0.6
			c-1.7-0.1-3.3-0.2-4.9-0.2c-9.8,0-11.3,5.6-11.3,9s1.3,8.6,10.1,8.6c2.3,0,4.7-0.5,7-1.4l0.3,1.4h5.1V21.6
			C107.8,18.1,106.3,12.3,96.7,12.3L96.7,12.3z M96.4,28.2c1.5,0,3.2,0.1,4.9,0.2v3.8c-1.9,1-3.9,1.4-6,1.4c-3.7,0-3.7-1.6-3.7-2.6
			C91.6,30.1,91.6,28.2,96.4,28.2L96.4,28.2z"/>
		<path class="st0" d="M123.5,12.3c-2.3,0-4.6,0.6-7,1.7l-0.2-1.7h-5.6v27.4h6.4V20.5c2.1-1.3,4.1-2,6.2-2c3.9,0,4.2,1.6,4.2,3.1v18
			h6.4v-18C134,18.2,132.7,12.3,123.5,12.3L123.5,12.3z"/>
		<rect x="137.2" y="3.9" class="st0" width="6.9" height="6.8"/>
		<rect x="137.4" y="12.3" class="st0" width="6.4" height="27.4"/>
	</g>
</g>
</svg>
